<svg xmlns="http://www.w3.org/2000/svg" xmlns:xlink="http://www.w3.org/1999/xlink" version="1.1" viewBox="0 0 3104 2546" style="background:#fff"><g id="v-3" transform="matrix(1,0,0,1,0,0)"><g id="j_36" transform="translate(20,2501)"><g id="v-667"><text id="v-668" y=".8em" fill="#aaa" font-family="Open Sans" font-size="22" font-weight="normal" pointer-events="none" text-anchor="start" transform="matrix(1,0,0,1,0,0)" xml:space="preserve"><tspan id="v-669" x="0" dy="0em">Friday, 27 August 2021, 16:25 Moscow Standard Time</tspan></text></g></g><g id="j_35" transform="translate(20,2455)"><g id="v-663"><text id="v-664" y=".8em" fill="#000" font-family="Open Sans" font-size="36" font-weight="normal" pointer-events="none" text-anchor="start" transform="matrix(1,0,0,1,0,0)" xml:space="preserve"><tspan id="v-665" x="0" dy="0em">Container diagram for OpenFL</tspan></text></g></g><g id="j_13" transform="translate(840,740)"><g id="v-214"><rect id="v-215" width="1390" height="1582" fill="#fff" stroke="#444" stroke-dasharray="20 20" stroke-width="2" pointer-events="none" rx="0" ry="0"/><text id="v-216" x="10" y="1543" fill="#444" font-family="Open Sans" font-size="24" font-weight="normal" pointer-events="visible" text-anchor="start" transform="matrix(1,0,0,1,15,0)" xml:space="preserve"><tspan id="v-218" x="0" dy="0em">OpenFL</tspan></text><text id="v-217" x="10" y="1567" fill="#444" font-family="Open Sans" font-size="19" font-weight="normal" pointer-events="visible" text-anchor="start" transform="matrix(1,0,0,1,15,0)" xml:space="preserve"><tspan id="v-219" x="0" dy="0em">[Software System]</tspan></text></g></g><g id="j_22" transform="translate(860,1300)"><g id="v-342"><rect id="v-343" width="490" height="929" fill="#fff" stroke="#ccc" stroke-dasharray="5 5" stroke-width="2" pointer-events="none" rx="0" ry="0"/><text id="v-344" x="10" y="914" fill="#ccc" font-family="Open Sans" font-size="24" font-weight="normal" pointer-events="visible" text-anchor="start" transform="matrix(1,0,0,1,15,0)" xml:space="preserve"><tspan id="v-346" x="0" dy="0em">Central node</tspan></text><text id="v-345" x="10" y="914" fill="#ccc" display="none" font-family="Open Sans" font-size="19" font-weight="normal" pointer-events="visible" text-anchor="start" transform="matrix(1,0,0,1,15,0)" xml:space="preserve"><tspan id="v-347" x="0" dy="0em" style="fill-opacity:0;stroke-opacity:0">-</tspan></text></g></g><g id="j_16" transform="translate(1720,1300)"><g id="v-253"><rect id="v-254" width="490" height="929" fill="#fff" stroke="#ccc" stroke-dasharray="5 5" stroke-width="2" pointer-events="none" rx="0" ry="0"/><text id="v-255" x="10" y="914" fill="#ccc" font-family="Open Sans" font-size="24" font-weight="normal" pointer-events="visible" text-anchor="start" transform="matrix(1,0,0,1,15,0)" xml:space="preserve"><tspan id="v-257" x="0" dy="0em">Collaborator node</tspan></text><text id="v-256" x="10" y="914" fill="#ccc" display="none" font-family="Open Sans" font-size="19" font-weight="normal" pointer-events="visible" text-anchor="start" transform="matrix(1,0,0,1,15,0)" xml:space="preserve"><tspan id="v-258" x="0" dy="0em" style="fill-opacity:0;stroke-opacity:0">-</tspan></text></g></g><g id="j_14" transform="translate(890,200)"><g id="v-223" style="opacity:1"><rect id="v-225" width="400" height="240" x="0" y="160" fill="#08427b" stroke="#073b6f" stroke-width="2" pointer-events="visiblePainted" rx="70"/><circle id="v-224" cx="200" cy="88.889" r="88.889" fill="#08427b" stroke="#073b6f" stroke-width="2" pointer-events="visiblePainted"/><line style="stroke-width:2px" id="v-231" x1="80" x2="80" y1="266.667" y2="400" stroke="#073b6f"/><line style="stroke-width:2px" id="v-232" x1="320" x2="320" y1="266.667" y2="400" stroke="#073b6f"/><text id="v-226" y=".8em" fill="#fff" font-family="Open Sans" font-size="34" font-weight="bold" pointer-events="visible" text-anchor="middle" transform="matrix(1,0,0,1,200,205)" xml:space="preserve"><tspan id="v-233" x="0" dy="0em">Data scientist</tspan></text><text id="v-227" y=".8em" fill="#fff" font-family="Open Sans" font-size="19" text-anchor="middle" transform="matrix(1,0,0,1,200,247.5)" xml:space="preserve"><tspan id="v-234" x="0" dy="0em">[Person]</tspan></text><text id="v-228" y=".8em" fill="#fff" font-family="Open Sans" font-size="24" text-anchor="middle" transform="matrix(1,0,0,1,200,295)" xml:space="preserve"><tspan id="v-235" x="0" dy="0em">A person or group of people</tspan><tspan id="v-236" x="0" dy="1.2em">using OpenFL</tspan></text><image id="v-230"/></g></g><g id="j_15" transform="translate(1740,1320)"><g id="v-240" style="opacity:1"><rect id="v-241" width="450" height="300" fill="#438dd5" stroke="#3c7fc0" stroke-width="2" pointer-events="visiblePainted" rx="20" ry="20"/><text id="v-242" y=".8em" fill="#fff" font-family="Open Sans" font-size="34" font-weight="bold" pointer-events="visible" text-anchor="middle" transform="matrix(1,0,0,1,225,60)" xml:space="preserve"><tspan id="v-247" x="0" dy="0em">Envoy</tspan></text><text id="v-243" y=".8em" fill="#fff" font-family="Open Sans" font-size="19" text-anchor="middle" transform="matrix(1,0,0,1,225,102.5)" xml:space="preserve"><tspan id="v-248" x="0" dy="0em">[Container]</tspan></text><text id="v-244" y=".8em" fill="#fff" font-family="Open Sans" font-size="24" text-anchor="middle" transform="matrix(1,0,0,1,225,150)" xml:space="preserve"><tspan id="v-249" x="0" dy="0em">A long-living entity that can adapt a</tspan><tspan id="v-250" x="0" dy="1.2em">local data set and spawn</tspan><tspan id="v-251" x="0" dy="1.2em">collaborators</tspan></text><text id="v-245" y=".8em" fill="#fff" display="none" font-family="Open Sans" font-size="24" font-weight="bold" text-anchor="middle" transform="matrix(1,0,0,1,225,270)" xml:space="preserve"><tspan id="v-259" x="0" dy="0em">+</tspan></text><image id="v-246"/></g></g><g id="j_17" transform="translate(2470,1265)"><g id="v-265" style="opacity:1"><rect id="v-267" width="400" height="240" x="0" y="160" fill="#08427b" stroke="#073b6f" stroke-width="2" pointer-events="visiblePainted" rx="70"/><circle id="v-266" cx="200" cy="88.889" r="88.889" fill="#08427b" stroke="#073b6f" stroke-width="2" pointer-events="visiblePainted"/><line style="stroke-width:2px" id="v-273" x1="80" x2="80" y1="266.667" y2="400" stroke="#073b6f"/><line style="stroke-width:2px" id="v-274" x1="320" x2="320" y1="266.667" y2="400" stroke="#073b6f"/><text id="v-268" y=".8em" fill="#fff" font-family="Open Sans" font-size="34" font-weight="bold" pointer-events="visible" text-anchor="middle" transform="matrix(1,0,0,1,200,205)" xml:space="preserve"><tspan id="v-275" x="0" dy="0em">Collaborator manager</tspan></text><text id="v-269" y=".8em" fill="#fff" font-family="Open Sans" font-size="19" text-anchor="middle" transform="matrix(1,0,0,1,200,247.5)" xml:space="preserve"><tspan id="v-276" x="0" dy="0em">[Person]</tspan></text><text id="v-270" y=".8em" fill="#fff" font-family="Open Sans" font-size="24" text-anchor="middle" transform="matrix(1,0,0,1,200,295)" xml:space="preserve"><tspan id="v-277" x="0" dy="0em">Data owner&apos;s representative</tspan><tspan id="v-278" x="0" dy="1.2em">controlling Envoy</tspan></text><image id="v-272"/></g></g><g id="j_18" transform="translate(230,1270)"><g id="v-282" style="opacity:1"><rect id="v-284" width="400" height="240" x="0" y="160" fill="#08427b" stroke="#073b6f" stroke-width="2" pointer-events="visiblePainted" rx="70"/><circle id="v-283" cx="200" cy="88.889" r="88.889" fill="#08427b" stroke="#073b6f" stroke-width="2" pointer-events="visiblePainted"/><line style="stroke-width:2px" id="v-290" x1="80" x2="80" y1="266.667" y2="400" stroke="#073b6f"/><line style="stroke-width:2px" id="v-291" x1="320" x2="320" y1="266.667" y2="400" stroke="#073b6f"/><text id="v-285" y=".8em" fill="#fff" font-family="Open Sans" font-size="34" font-weight="bold" pointer-events="visible" text-anchor="middle" transform="matrix(1,0,0,1,200,246.9)" xml:space="preserve"><tspan id="v-292" x="0" dy="0em">Director manager</tspan></text><text id="v-286" y=".8em" fill="#fff" font-family="Open Sans" font-size="19" text-anchor="middle" transform="matrix(1,0,0,1,200,289.4)" xml:space="preserve"><tspan id="v-293" x="0" dy="0em">[Person]</tspan></text><text id="v-287" y=".8em" fill="#fff" display="none" font-family="Open Sans" font-size="24" text-anchor="middle" transform="matrix(1,0,0,1,200,313.1)" xml:space="preserve"><tspan id="v-294" x="0" dy="0em" style="fill-opacity:0;stroke-opacity:0">-</tspan></text><image id="v-289"/></g></g><g id="j_19" transform="translate(1740,1855)"><g id="v-298" style="opacity:1"><rect id="v-299" width="450" height="300" fill="#438dd5" stroke="#3c7fc0" stroke-width="2" pointer-events="visiblePainted" rx="20" ry="20"/><text id="v-300" y=".8em" fill="#fff" font-family="Open Sans" font-size="34" font-weight="bold" pointer-events="visible" text-anchor="middle" transform="matrix(1,0,0,1,225,75)" xml:space="preserve"><tspan id="v-305" x="0" dy="0em">Collaborator</tspan></text><text id="v-301" y=".8em" fill="#fff" font-family="Open Sans" font-size="19" text-anchor="middle" transform="matrix(1,0,0,1,225,117.5)" xml:space="preserve"><tspan id="v-306" x="0" dy="0em">[Container]</tspan></text><text id="v-302" y=".8em" fill="#fff" font-family="Open Sans" font-size="24" text-anchor="middle" transform="matrix(1,0,0,1,225,165)" xml:space="preserve"><tspan id="v-307" x="0" dy="0em">Actor executing tasks on local data</tspan><tspan id="v-308" x="0" dy="1.2em">inside one experiment</tspan></text><text id="v-303" y=".8em" fill="#fff" display="none" font-family="Open Sans" font-size="24" font-weight="bold" text-anchor="middle" transform="matrix(1,0,0,1,225,270)" xml:space="preserve"><tspan id="v-309" x="0" dy="0em">+</tspan></text><image id="v-304"/></g></g><g id="j_20" transform="translate(880,760)"><g id="v-315" style="opacity:1"><rect id="v-316" width="450" height="300" fill="#438dd5" stroke="#3c7fc0" stroke-width="2" pointer-events="visiblePainted" rx="20" ry="20"/><text id="v-317" y=".8em" fill="#fff" font-family="Open Sans" font-size="34" font-weight="bold" pointer-events="visible" text-anchor="middle" transform="matrix(1,0,0,1,225,75)" xml:space="preserve"><tspan id="v-322" x="0" dy="0em">Python API component</tspan></text><text id="v-318" y=".8em" fill="#fff" font-family="Open Sans" font-size="19" text-anchor="middle" transform="matrix(1,0,0,1,225,117.5)" xml:space="preserve"><tspan id="v-323" x="0" dy="0em">[Container]</tspan></text><text id="v-319" y=".8em" fill="#fff" font-family="Open Sans" font-size="24" text-anchor="middle" transform="matrix(1,0,0,1,225,165)" xml:space="preserve"><tspan id="v-324" x="0" dy="0em">A set of tools to setup register FL</tspan><tspan id="v-325" x="0" dy="1.2em">Experiments</tspan></text><text id="v-320" y=".8em" fill="#fff" display="none" font-family="Open Sans" font-size="24" font-weight="bold" text-anchor="middle" transform="matrix(1,0,0,1,225,270)" xml:space="preserve"><tspan id="v-326" x="0" dy="0em">+</tspan></text><image id="v-321"/></g></g><g id="j_21" transform="translate(880,1320)"><g id="v-330" style="opacity:1"><rect id="v-331" width="450" height="300" fill="#438dd5" stroke="#3c7fc0" stroke-width="2" pointer-events="visiblePainted" rx="20" ry="20"/><text id="v-332" y=".8em" fill="#fff" font-family="Open Sans" font-size="34" font-weight="bold" pointer-events="visible" text-anchor="middle" transform="matrix(1,0,0,1,225,75)" xml:space="preserve"><tspan id="v-337" x="0" dy="0em">Director</tspan></text><text id="v-333" y=".8em" fill="#fff" font-family="Open Sans" font-size="19" text-anchor="middle" transform="matrix(1,0,0,1,225,117.5)" xml:space="preserve"><tspan id="v-338" x="0" dy="0em">[Container]</tspan></text><text id="v-334" y=".8em" fill="#fff" font-family="Open Sans" font-size="24" text-anchor="middle" transform="matrix(1,0,0,1,225,165)" xml:space="preserve"><tspan id="v-339" x="0" dy="0em">A long-living entity that can spawn</tspan><tspan id="v-340" x="0" dy="1.2em">aggregators</tspan></text><text id="v-335" y=".8em" fill="#fff" display="none" font-family="Open Sans" font-size="24" font-weight="bold" text-anchor="middle" transform="matrix(1,0,0,1,225,270)" xml:space="preserve"><tspan id="v-348" x="0" dy="0em" style="fill-opacity:0;stroke-opacity:0">-</tspan></text><image id="v-336"/></g></g><g id="j_23" transform="translate(880,1855)"><g id="v-352" style="opacity:1"><rect id="v-353" width="450" height="300" fill="#438dd5" stroke="#3c7fc0" stroke-width="2" pointer-events="visiblePainted" rx="20" ry="20"/><text id="v-354" y=".8em" fill="#fff" font-family="Open Sans" font-size="34" font-weight="bold" pointer-events="visible" text-anchor="middle" transform="matrix(1,0,0,1,225,75)" xml:space="preserve"><tspan id="v-359" x="0" dy="0em">Aggregator</tspan></text><text id="v-355" y=".8em" fill="#fff" font-family="Open Sans" font-size="19" text-anchor="middle" transform="matrix(1,0,0,1,225,117.5)" xml:space="preserve"><tspan id="v-360" x="0" dy="0em">[Container]</tspan></text><text id="v-356" y=".8em" fill="#fff" font-family="Open Sans" font-size="24" text-anchor="middle" transform="matrix(1,0,0,1,225,165)" xml:space="preserve"><tspan id="v-361" x="0" dy="0em">Model server and collaborator</tspan><tspan id="v-362" x="0" dy="1.2em">orchestrator</tspan></text><text id="v-357" y=".8em" fill="#fff" display="none" font-family="Open Sans" font-size="24" font-weight="bold" text-anchor="middle" transform="matrix(1,0,0,1,225,270)" xml:space="preserve"><tspan id="v-363" x="0" dy="0em" style="fill-opacity:0;stroke-opacity:0">-</tspan></text><image id="v-358"/></g></g><g id="j_24"><path id="v-386" fill="none" stroke="#707070" stroke-dasharray="30 30" stroke-width="2" d="M 630 1470 860 1470" style="opacity:1"/><path fill="#000" stroke="#000" transform="translate(630,1470) scale(1,1) rotate(0)"/><path id="v-388" fill="#707070" stroke="#707070" d="M 20 0 L 0 10 L 20 20 z" transform="translate(880,1480) scale(1,1) rotate(-180)" style="opacity:1"/><path id="v-387" fill="none" d="M 630 1470 860 1470"/><title/><g><g id="v-371" cursor="move" label-idx="0" transform="translate(745, 1470)" style="opacity:1"><rect id="v-373" width="165.5" height="119" fill="#fff" stroke="#fff" stroke-width="20" pointer-events="none" rx="3" ry="3" transform="matrix(1,0,0,1,-82.7,-59.5)"/><text id="v-372" y=".8em" fill="#707070" font-family="Open Sans" font-size="24" font-weight="normal" pointer-events="none" text-anchor="middle" transform="matrix(1,0,0,1,0,-52.2)" xml:space="preserve"><tspan id="v-374" x="0" dy="0em">Launches. Sets</tspan><tspan id="v-375" x="0" dy="1.2em">up global</tspan><tspan id="v-376" x="0" dy="1.2em">Federation</tspan><tspan id="v-377" x="0" dy="1.2em">settings</tspan></text></g><g id="v-378" cursor="move" label-idx="1" transform="translate(745, 1539.6)" style="opacity:1"><rect id="v-380" width="0" height="0" fill="#fff" pointer-events="none" rx="3" ry="3" transform="matrix(1,0,0,1,0,0)"/><text id="v-379" y=".8em" fill="#707070" display="none" font-family="Open Sans" font-size="19" font-weight="normal" pointer-events="none" text-anchor="middle" transform="matrix(1,0,0,1,0,0)" xml:space="preserve"><tspan id="v-381" x="0" dy="0em" style="fill-opacity:0;stroke-opacity:0">-</tspan></text></g><g id="v-382" cursor="move" label-idx="2" transform="translate(745, 1563.6)" style="opacity:1"><rect id="v-384" width="0" height="0" fill="#fff" display="none" pointer-events="none" rx="3" ry="3" transform="matrix(1,0,0,1,0,0)"/><text id="v-383" y=".8em" fill="#707070" display="none" font-family="Open Sans" font-size="19" font-weight="normal" pointer-events="none" text-anchor="middle" transform="matrix(1,0,0,1,0,0)" xml:space="preserve"><tspan id="v-385" x="0" dy="0em" style="fill-opacity:0;stroke-opacity:0">-</tspan></text></g></g><g id="v-390" display="none"><g id="v-368"><path d="M 26 0 L 0 13 L 26 26 z" end="source"/></g><g id="v-369"><path d="M 26 0 L 0 13 L 26 26 z" end="target"/></g></g><g id="v-389" display="none"><g id="v-367"><g event="remove" transform="translate(670, 1470)"><circle r="11"/><path d="M24.778,21.419 19.276,15.917 24.777,10.415 21.949,7.585 16.447,13.087 10.945,7.585 8.117,10.415 13.618,15.917 8.116,21.419 10.946,24.248 16.447,18.746 21.948,24.248z" transform="scale(.8) translate(-16, -16)"/><title>Remove link.</title></g><g event="link:options" transform="translate(670, 1470)"><circle r="11" transform="translate(25)"/><path fill="#fff" d="M31.229,17.736c0.064-0.571,0.104-1.148,0.104-1.736s-0.04-1.166-0.104-1.737l-4.377-1.557c-0.218-0.716-0.504-1.401-0.851-2.05l1.993-4.192c-0.725-0.91-1.549-1.734-2.458-2.459l-4.193,1.994c-0.647-0.347-1.334-0.632-2.049-0.849l-1.558-4.378C17.165,0.708,16.588,0.667,16,0.667s-1.166,0.041-1.737,0.105L12.707,5.15c-0.716,0.217-1.401,0.502-2.05,0.849L6.464,4.005C5.554,4.73,4.73,5.554,4.005,6.464l1.994,4.192c-0.347,0.648-0.632,1.334-0.849,2.05l-4.378,1.557C0.708,14.834,0.667,15.412,0.667,16s0.041,1.165,0.105,1.736l4.378,1.558c0.217,0.715,0.502,1.401,0.849,2.049l-1.994,4.193c0.725,0.909,1.549,1.733,2.459,2.458l4.192-1.993c0.648,0.347,1.334,0.633,2.05,0.851l1.557,4.377c0.571,0.064,1.148,0.104,1.737,0.104c0.588,0,1.165-0.04,1.736-0.104l1.558-4.377c0.715-0.218,1.399-0.504,2.049-0.851l4.193,1.993c0.909-0.725,1.733-1.549,2.458-2.458l-1.993-4.193c0.347-0.647,0.633-1.334,0.851-2.049L31.229,17.736zM16,20.871c-2.69,0-4.872-2.182-4.872-4.871c0-2.69,2.182-4.872,4.872-4.872c2.689,0,4.871,2.182,4.871,4.872C20.871,18.689,18.689,20.871,16,20.871z" transform="scale(.55) translate(29, -16)"/><title>Link options.</title></g></g></g></g><g id="j_25"><path id="v-413" fill="none" stroke="#707070" stroke-dasharray="30 30" stroke-width="2" d="M 2470 1466 2210 1468" style="opacity:1"/><path fill="#000" stroke="#000" transform="translate(2470,1466) scale(1,1) rotate(-180.4092559814453)"/><path id="v-415" fill="#707070" stroke="#707070" d="M 20 0 L 0 10 L 20 20 z" transform="translate(2189.928584200193,1458.0002707109588) scale(1,1) rotate(-0.40924862027168274)" style="opacity:1"/><path id="v-414" fill="none" d="M 2470 1466 2210 1468"/><title/><g><g id="v-398" cursor="move" label-idx="0" transform="translate(2340, 1467)" style="opacity:1"><rect id="v-400" width="194.344" height="119" fill="#fff" stroke="#fff" stroke-width="20" pointer-events="none" rx="3" ry="3" transform="matrix(1,0,0,1,-97.2,-59.5)"/><text id="v-399" y=".8em" fill="#707070" font-family="Open Sans" font-size="24" font-weight="normal" pointer-events="none" text-anchor="middle" transform="matrix(1,0,0,1,0,-52.2)" xml:space="preserve"><tspan id="v-401" x="0" dy="0em">Launches.</tspan><tspan id="v-402" x="0" dy="1.2em">Provides local</tspan><tspan id="v-403" x="0" dy="1.2em">dataset</tspan><tspan id="v-404" x="0" dy="1.2em">ShardDescriptors</tspan></text></g><g id="v-405" cursor="move" label-idx="1" transform="translate(2340, 1536.6)" style="opacity:1"><rect id="v-407" width="0" height="0" fill="#fff" pointer-events="none" rx="3" ry="3" transform="matrix(1,0,0,1,0,0)"/><text id="v-406" y=".8em" fill="#707070" display="none" font-family="Open Sans" font-size="19" font-weight="normal" pointer-events="none" text-anchor="middle" transform="matrix(1,0,0,1,0,0)" xml:space="preserve"><tspan id="v-408" x="0" dy="0em" style="fill-opacity:0;stroke-opacity:0">-</tspan></text></g><g id="v-409" cursor="move" label-idx="2" transform="translate(2340, 1560.6)" style="opacity:1"><rect id="v-411" width="0" height="0" fill="#fff" display="none" pointer-events="none" rx="3" ry="3" transform="matrix(1,0,0,1,0,0)"/><text id="v-410" y=".8em" fill="#707070" display="none" font-family="Open Sans" font-size="19" font-weight="normal" pointer-events="none" text-anchor="middle" transform="matrix(1,0,0,1,0,0)" xml:space="preserve"><tspan id="v-412" x="0" dy="0em" style="fill-opacity:0;stroke-opacity:0">-</tspan></text></g></g><g id="v-417" display="none"><g id="v-395"><path d="M 26 0 L 0 13 L 26 26 z" end="source"/></g><g id="v-396"><path d="M 26 0 L 0 13 L 26 26 z" end="target"/></g></g><g id="v-416" display="none"><g id="v-394"><g event="remove" transform="translate(2430.001220703125, 1466.3076171875)"><circle r="11"/><path d="M24.778,21.419 19.276,15.917 24.777,10.415 21.949,7.585 16.447,13.087 10.945,7.585 8.117,10.415 13.618,15.917 8.116,21.419 10.946,24.248 16.447,18.746 21.948,24.248z" transform="scale(.8) translate(-16, -16)"/><title>Remove link.</title></g><g event="link:options" transform="translate(2430.001220703125, 1466.3076171875)"><circle r="11" transform="translate(25)"/><path fill="#fff" d="M31.229,17.736c0.064-0.571,0.104-1.148,0.104-1.736s-0.04-1.166-0.104-1.737l-4.377-1.557c-0.218-0.716-0.504-1.401-0.851-2.05l1.993-4.192c-0.725-0.91-1.549-1.734-2.458-2.459l-4.193,1.994c-0.647-0.347-1.334-0.632-2.049-0.849l-1.558-4.378C17.165,0.708,16.588,0.667,16,0.667s-1.166,0.041-1.737,0.105L12.707,5.15c-0.716,0.217-1.401,0.502-2.05,0.849L6.464,4.005C5.554,4.73,4.73,5.554,4.005,6.464l1.994,4.192c-0.347,0.648-0.632,1.334-0.849,2.05l-4.378,1.557C0.708,14.834,0.667,15.412,0.667,16s0.041,1.165,0.105,1.736l4.378,1.558c0.217,0.715,0.502,1.401,0.849,2.049l-1.994,4.193c0.725,0.909,1.549,1.733,2.459,2.458l4.192-1.993c0.648,0.347,1.334,0.633,2.05,0.851l1.557,4.377c0.571,0.064,1.148,0.104,1.737,0.104c0.588,0,1.165-0.04,1.736-0.104l1.558-4.377c0.715-0.218,1.399-0.504,2.049-0.851l4.193,1.993c0.909-0.725,1.733-1.549,2.458-2.458l-1.993-4.193c0.347-0.647,0.633-1.334,0.851-2.049L31.229,17.736zM16,20.871c-2.69,0-4.872-2.182-4.872-4.871c0-2.69,2.182-4.872,4.872-4.872c2.689,0,4.871,2.182,4.871,4.872C20.871,18.689,18.689,20.871,16,20.871z" transform="scale(.55) translate(29, -16)"/><title>Link options.</title></g></g></g></g><g id="j_26"><path id="v-441" fill="none" stroke="#707070" stroke-dasharray="30 30" stroke-width="2" d="M 1740 1971 1545 1941 S 1535 1940 1525 1941 L 1350 1968" style="opacity:1"/><path fill="#000" stroke="#000" transform="translate(1740,1971) scale(1,1) rotate(-171.40090942382812)"/><path id="v-443" fill="#707070" stroke="#707070" d="M 20 0 L 0 10 L 20 20 z" transform="translate(1328.5047894829493,1961.1123693136124) scale(1,1) rotate(-8.599088668823242)" style="opacity:1"/><path id="v-442" fill="none" d="M 1740 1971 1545 1941 S 1535 1940 1525 1941 L 1350 1968"/><title/><g><g id="v-426" cursor="move" label-idx="0" transform="translate(1545.0970458984375, 1941.014892578125)" style="opacity:1"><rect id="v-428" width="156.188" height="119" fill="#fff" stroke="#fff" stroke-width="20" pointer-events="none" rx="3" ry="3" transform="matrix(1,0,0,1,-78.1,-59.5)"/><text id="v-427" y=".8em" fill="#707070" font-family="Open Sans" font-size="24" font-weight="normal" pointer-events="none" text-anchor="middle" transform="matrix(1,0,0,1,0,-52.2)" xml:space="preserve"><tspan id="v-429" x="0" dy="0em">Sends locally</tspan><tspan id="v-430" x="0" dy="1.2em">tuned tensors</tspan><tspan id="v-431" x="0" dy="1.2em">and training</tspan><tspan id="v-432" x="0" dy="1.2em">metrics</tspan></text></g><g id="v-433" cursor="move" label-idx="1" transform="translate(1545.0970458984375, 2010.614892578125)" style="opacity:1"><rect id="v-435" width="0" height="0" fill="#fff" pointer-events="none" rx="3" ry="3" transform="matrix(1,0,0,1,0,0)"/><text id="v-434" y=".8em" fill="#707070" display="none" font-family="Open Sans" font-size="19" font-weight="normal" pointer-events="none" text-anchor="middle" transform="matrix(1,0,0,1,0,0)" xml:space="preserve"><tspan id="v-436" x="0" dy="0em" style="fill-opacity:0;stroke-opacity:0">-</tspan></text></g><g id="v-437" cursor="move" label-idx="2" transform="translate(1545.0970458984375, 2034.614892578125)" style="opacity:1"><rect id="v-439" width="0" height="0" fill="#fff" display="none" pointer-events="none" rx="3" ry="3" transform="matrix(1,0,0,1,0,0)"/><text id="v-438" y=".8em" fill="#707070" display="none" font-family="Open Sans" font-size="19" font-weight="normal" pointer-events="none" text-anchor="middle" transform="matrix(1,0,0,1,0,0)" xml:space="preserve"><tspan id="v-440" x="0" dy="0em" style="fill-opacity:0;stroke-opacity:0">-</tspan></text></g></g><g display="none"><g id="v-422" transform="translate(1535, 1940)"><circle r="10" idx="0"/><path d="M16,5.333c-7.732,0-14,4.701-14,10.5c0,1.982,0.741,3.833,2.016,5.414L2,25.667l5.613-1.441c2.339,1.317,5.237,2.107,8.387,2.107c7.732,0,14-4.701,14-10.5C30,10.034,23.732,5.333,16,5.333z" idx="0" transform="translate(5, -33)"/><path d="M24.778,21.419 19.276,15.917 24.777,10.415 21.949,7.585 16.447,13.087 10.945,7.585 8.117,10.415 13.618,15.917 8.116,21.419 10.946,24.248 16.447,18.746 21.948,24.248z" idx="0" transform="scale(.8) translate(9.5, -37)"><title>Remove vertex.</title></path></g></g><g id="v-445" display="none"><g id="v-423"><path d="M 26 0 L 0 13 L 26 26 z" end="source"/></g><g id="v-424"><path d="M 26 0 L 0 13 L 26 26 z" end="target"/></g></g><g id="v-444" display="none"><g id="v-421"><g event="remove" transform="translate(1700.465087890625, 1964.917724609375)"><circle r="11"/><path d="M24.778,21.419 19.276,15.917 24.777,10.415 21.949,7.585 16.447,13.087 10.945,7.585 8.117,10.415 13.618,15.917 8.116,21.419 10.946,24.248 16.447,18.746 21.948,24.248z" transform="scale(.8) translate(-16, -16)"/><title>Remove link.</title></g><g event="link:options" transform="translate(1700.465087890625, 1964.917724609375)"><circle r="11" transform="translate(25)"/><path fill="#fff" d="M31.229,17.736c0.064-0.571,0.104-1.148,0.104-1.736s-0.04-1.166-0.104-1.737l-4.377-1.557c-0.218-0.716-0.504-1.401-0.851-2.05l1.993-4.192c-0.725-0.91-1.549-1.734-2.458-2.459l-4.193,1.994c-0.647-0.347-1.334-0.632-2.049-0.849l-1.558-4.378C17.165,0.708,16.588,0.667,16,0.667s-1.166,0.041-1.737,0.105L12.707,5.15c-0.716,0.217-1.401,0.502-2.05,0.849L6.464,4.005C5.554,4.73,4.73,5.554,4.005,6.464l1.994,4.192c-0.347,0.648-0.632,1.334-0.849,2.05l-4.378,1.557C0.708,14.834,0.667,15.412,0.667,16s0.041,1.165,0.105,1.736l4.378,1.558c0.217,0.715,0.502,1.401,0.849,2.049l-1.994,4.193c0.725,0.909,1.549,1.733,2.459,2.458l4.192-1.993c0.648,0.347,1.334,0.633,2.05,0.851l1.557,4.377c0.571,0.064,1.148,0.104,1.737,0.104c0.588,0,1.165-0.04,1.736-0.104l1.558-4.377c0.715-0.218,1.399-0.504,2.049-0.851l4.193,1.993c0.909-0.725,1.733-1.549,2.458-2.458l-1.993-4.193c0.347-0.647,0.633-1.334,0.851-2.049L31.229,17.736zM16,20.871c-2.69,0-4.872-2.182-4.872-4.871c0-2.69,2.182-4.872,4.872-4.872c2.689,0,4.871,2.182,4.871,4.872C20.871,18.689,18.689,20.871,16,20.871z" transform="scale(.55) translate(29, -16)"/><title>Link options.</title></g></g></g></g><g id="j_27"><path id="v-467" fill="none" stroke="#707070" stroke-dasharray="30 30" stroke-width="2" d="M 1096 600 1100 740" style="opacity:1"/><path fill="#000" stroke="#000" transform="translate(1096,600) scale(1,1) rotate(88.21008300781253)"/><path id="v-469" fill="#707070" stroke="#707070" d="M 20 0 L 0 10 L 20 20 z" transform="translate(1091.0048486091628,760.3123508866711) scale(1,1) rotate(-91.78990936279297)" style="opacity:1"/><path id="v-468" fill="none" d="M 1096 600 1100 740"/><title/><g><g id="v-453" cursor="move" label-idx="0" transform="translate(1098, 670)" style="opacity:1"><rect id="v-455" width="199.656" height="90.203" fill="#fff" stroke="#fff" stroke-width="20" pointer-events="none" rx="3" ry="3" transform="matrix(1,0,0,1,-99.8,-45.1)"/><text id="v-454" y=".8em" fill="#707070" font-family="Open Sans" font-size="24" font-weight="normal" pointer-events="none" text-anchor="middle" transform="matrix(1,0,0,1,0,-37.8)" xml:space="preserve"><tspan id="v-456" x="0" dy="0em">Provides FL Plans,</tspan><tspan id="v-457" x="0" dy="1.2em">Tasks, Models,</tspan><tspan id="v-458" x="0" dy="1.2em">DataLoaders</tspan></text></g><g id="v-459" cursor="move" label-idx="1" transform="translate(1098, 727.6)" style="opacity:1"><rect id="v-461" width="0" height="0" fill="#fff" pointer-events="none" rx="3" ry="3" transform="matrix(1,0,0,1,0,0)"/><text id="v-460" y=".8em" fill="#707070" display="none" font-family="Open Sans" font-size="19" font-weight="normal" pointer-events="none" text-anchor="middle" transform="matrix(1,0,0,1,0,0)" xml:space="preserve"><tspan id="v-462" x="0" dy="0em" style="fill-opacity:0;stroke-opacity:0">-</tspan></text></g><g id="v-463" cursor="move" label-idx="2" transform="translate(1098, 751.6)" style="opacity:1"><rect id="v-465" width="0" height="0" fill="#fff" display="none" pointer-events="none" rx="3" ry="3" transform="matrix(1,0,0,1,0,0)"/><text id="v-464" y=".8em" fill="#707070" display="none" font-family="Open Sans" font-size="19" font-weight="normal" pointer-events="none" text-anchor="middle" transform="matrix(1,0,0,1,0,0)" xml:space="preserve"><tspan id="v-466" x="0" dy="0em" style="fill-opacity:0;stroke-opacity:0">-</tspan></text></g></g><g id="v-471" display="none"><g id="v-450"><path d="M 26 0 L 0 13 L 26 26 z" end="source"/></g><g id="v-451"><path d="M 26 0 L 0 13 L 26 26 z" end="target"/></g></g><g id="v-470" display="none"><g id="v-449"><g event="remove" transform="translate(1097.142333984375, 639.9837036132812)"><circle r="11"/><path d="M24.778,21.419 19.276,15.917 24.777,10.415 21.949,7.585 16.447,13.087 10.945,7.585 8.117,10.415 13.618,15.917 8.116,21.419 10.946,24.248 16.447,18.746 21.948,24.248z" transform="scale(.8) translate(-16, -16)"/><title>Remove link.</title></g><g event="link:options" transform="translate(1097.142333984375, 639.9837036132812)"><circle r="11" transform="translate(25)"/><path fill="#fff" d="M31.229,17.736c0.064-0.571,0.104-1.148,0.104-1.736s-0.04-1.166-0.104-1.737l-4.377-1.557c-0.218-0.716-0.504-1.401-0.851-2.05l1.993-4.192c-0.725-0.91-1.549-1.734-2.458-2.459l-4.193,1.994c-0.647-0.347-1.334-0.632-2.049-0.849l-1.558-4.378C17.165,0.708,16.588,0.667,16,0.667s-1.166,0.041-1.737,0.105L12.707,5.15c-0.716,0.217-1.401,0.502-2.05,0.849L6.464,4.005C5.554,4.73,4.73,5.554,4.005,6.464l1.994,4.192c-0.347,0.648-0.632,1.334-0.849,2.05l-4.378,1.557C0.708,14.834,0.667,15.412,0.667,16s0.041,1.165,0.105,1.736l4.378,1.558c0.217,0.715,0.502,1.401,0.849,2.049l-1.994,4.193c0.725,0.909,1.549,1.733,2.459,2.458l4.192-1.993c0.648,0.347,1.334,0.633,2.05,0.851l1.557,4.377c0.571,0.064,1.148,0.104,1.737,0.104c0.588,0,1.165-0.04,1.736-0.104l1.558-4.377c0.715-0.218,1.399-0.504,2.049-0.851l4.193,1.993c0.909-0.725,1.733-1.549,2.458-2.458l-1.993-4.193c0.347-0.647,0.633-1.334,0.851-2.049L31.229,17.736zM16,20.871c-2.69,0-4.872-2.182-4.872-4.871c0-2.69,2.182-4.872,4.872-4.872c2.689,0,4.871,2.182,4.871,4.872C20.871,18.689,18.689,20.871,16,20.871z" transform="scale(.55) translate(29, -16)"/><title>Link options.</title></g></g></g></g><g id="j_28"><path id="v-493" fill="none" stroke="#707070" stroke-dasharray="30 30" stroke-width="2" d="M 1330 2047 1555 2088 S 1565 2090 1575 2088 L 1720 2057" style="opacity:1"/><path fill="#000" stroke="#000" transform="translate(1330,2047) scale(1,1) rotate(10.36920166015625)"/><path id="v-495" fill="#707070" stroke="#707070" d="M 20 0 L 0 10 L 20 20 z" transform="translate(1742.0685808356088,2062.783760202619) scale(1,1) rotate(-191.9381561279297)" style="opacity:1"/><path id="v-494" fill="none" d="M 1330 2047 1555 2088 S 1565 2090 1575 2088 L 1720 2057"/><title/><g><g id="v-480" cursor="move" label-idx="0" transform="translate(1525.3284912109375, 2082.59326171875)" style="opacity:1"><rect id="v-482" width="180.063" height="61.406" fill="#fff" stroke="#fff" stroke-width="20" pointer-events="none" rx="3" ry="3" transform="matrix(1,0,0,1,-90,-30.7)"/><text id="v-481" y=".8em" fill="#707070" font-family="Open Sans" font-size="24" font-weight="normal" pointer-events="none" text-anchor="middle" transform="matrix(1,0,0,1,0,-23.4)" xml:space="preserve"><tspan id="v-483" x="0" dy="0em">Sends tasks and</tspan><tspan id="v-484" x="0" dy="1.2em">initial tensors</tspan></text></g><g id="v-485" cursor="move" label-idx="1" transform="translate(1525.3284912109375, 2125.79326171875)" style="opacity:1"><rect id="v-487" width="0" height="0" fill="#fff" pointer-events="none" rx="3" ry="3" transform="matrix(1,0,0,1,0,0)"/><text id="v-486" y=".8em" fill="#707070" display="none" font-family="Open Sans" font-size="19" font-weight="normal" pointer-events="none" text-anchor="middle" transform="matrix(1,0,0,1,0,0)" xml:space="preserve"><tspan id="v-488" x="0" dy="0em" style="fill-opacity:0;stroke-opacity:0">-</tspan></text></g><g id="v-489" cursor="move" label-idx="2" transform="translate(1525.3284912109375, 2149.79326171875)" style="opacity:1"><rect id="v-491" width="0" height="0" fill="#fff" display="none" pointer-events="none" rx="3" ry="3" transform="matrix(1,0,0,1,0,0)"/><text id="v-490" y=".8em" fill="#707070" display="none" font-family="Open Sans" font-size="19" font-weight="normal" pointer-events="none" text-anchor="middle" transform="matrix(1,0,0,1,0,0)" xml:space="preserve"><tspan id="v-492" x="0" dy="0em" style="fill-opacity:0;stroke-opacity:0">-</tspan></text></g></g><g display="none"><g id="v-476" transform="translate(1565, 2090)"><circle r="10" idx="0"/><path d="M16,5.333c-7.732,0-14,4.701-14,10.5c0,1.982,0.741,3.833,2.016,5.414L2,25.667l5.613-1.441c2.339,1.317,5.237,2.107,8.387,2.107c7.732,0,14-4.701,14-10.5C30,10.034,23.732,5.333,16,5.333z" idx="0" transform="translate(5, -33)"/><path d="M24.778,21.419 19.276,15.917 24.777,10.415 21.949,7.585 16.447,13.087 10.945,7.585 8.117,10.415 13.618,15.917 8.116,21.419 10.946,24.248 16.447,18.746 21.948,24.248z" idx="0" transform="scale(.8) translate(9.5, -37)"><title>Remove vertex.</title></path></g></g><g id="v-497" display="none"><g id="v-477"><path d="M 26 0 L 0 13 L 26 26 z" end="source"/></g><g id="v-478"><path d="M 26 0 L 0 13 L 26 26 z" end="target"/></g></g><g id="v-496" display="none"><g id="v-475"><g event="remove" transform="translate(1369.35205078125, 2054.1708984375)"><circle r="11"/><path d="M24.778,21.419 19.276,15.917 24.777,10.415 21.949,7.585 16.447,13.087 10.945,7.585 8.117,10.415 13.618,15.917 8.116,21.419 10.946,24.248 16.447,18.746 21.948,24.248z" transform="scale(.8) translate(-16, -16)"/><title>Remove link.</title></g><g event="link:options" transform="translate(1369.35205078125, 2054.1708984375)"><circle r="11" transform="translate(25)"/><path fill="#fff" d="M31.229,17.736c0.064-0.571,0.104-1.148,0.104-1.736s-0.04-1.166-0.104-1.737l-4.377-1.557c-0.218-0.716-0.504-1.401-0.851-2.05l1.993-4.192c-0.725-0.91-1.549-1.734-2.458-2.459l-4.193,1.994c-0.647-0.347-1.334-0.632-2.049-0.849l-1.558-4.378C17.165,0.708,16.588,0.667,16,0.667s-1.166,0.041-1.737,0.105L12.707,5.15c-0.716,0.217-1.401,0.502-2.05,0.849L6.464,4.005C5.554,4.73,4.73,5.554,4.005,6.464l1.994,4.192c-0.347,0.648-0.632,1.334-0.849,2.05l-4.378,1.557C0.708,14.834,0.667,15.412,0.667,16s0.041,1.165,0.105,1.736l4.378,1.558c0.217,0.715,0.502,1.401,0.849,2.049l-1.994,4.193c0.725,0.909,1.549,1.733,2.459,2.458l4.192-1.993c0.648,0.347,1.334,0.633,2.05,0.851l1.557,4.377c0.571,0.064,1.148,0.104,1.737,0.104c0.588,0,1.165-0.04,1.736-0.104l1.558-4.377c0.715-0.218,1.399-0.504,2.049-0.851l4.193,1.993c0.909-0.725,1.733-1.549,2.458-2.458l-1.993-4.193c0.347-0.647,0.633-1.334,0.851-2.049L31.229,17.736zM16,20.871c-2.69,0-4.872-2.182-4.872-4.871c0-2.69,2.182-4.872,4.872-4.872c2.689,0,4.871,2.182,4.871,4.872C20.871,18.689,18.689,20.871,16,20.871z" transform="scale(.55) translate(29, -16)"/><title>Link options.</title></g></g></g></g><g id="j_29"><path id="v-519" fill="none" stroke="#707070" stroke-dasharray="30 30" stroke-width="2" d="M 1330 1500 1540 1529 S 1550 1530 1560 1529 L 1720 1506" style="opacity:1"/><path fill="#000" stroke="#000" transform="translate(1330,1500) scale(1,1) rotate(7.765167236328139)"/><path id="v-521" fill="#707070" stroke="#707070" d="M 20 0 L 0 10 L 20 20 z" transform="translate(1741.4069390794684,1512.9004776234322) scale(1,1) rotate(-188.08787536621094)" style="opacity:1"/><path id="v-520" fill="none" d="M 1330 1500 1540 1529 S 1550 1530 1560 1529 L 1720 1506"/><title/><g><g id="v-506" cursor="move" label-idx="0" transform="translate(1524.98193359375, 1526.926025390625)" style="opacity:1"><rect id="v-508" width="185.438" height="61.406" fill="#fff" stroke="#fff" stroke-width="20" pointer-events="none" rx="3" ry="3" transform="matrix(1,0,0,1,-92.7,-30.7)"/><text id="v-507" y=".8em" fill="#707070" font-family="Open Sans" font-size="24" font-weight="normal" pointer-events="none" text-anchor="middle" transform="matrix(1,0,0,1,0,-23.4)" xml:space="preserve"><tspan id="v-509" x="0" dy="0em">Approves, Sends</tspan><tspan id="v-510" x="0" dy="1.2em">FL experiments</tspan></text></g><g id="v-511" cursor="move" label-idx="1" transform="translate(1524.98193359375, 1570.126025390625)" style="opacity:1"><rect id="v-513" width="0" height="0" fill="#fff" pointer-events="none" rx="3" ry="3" transform="matrix(1,0,0,1,0,0)"/><text id="v-512" y=".8em" fill="#707070" display="none" font-family="Open Sans" font-size="19" font-weight="normal" pointer-events="none" text-anchor="middle" transform="matrix(1,0,0,1,0,0)" xml:space="preserve"><tspan id="v-514" x="0" dy="0em" style="fill-opacity:0;stroke-opacity:0">-</tspan></text></g><g id="v-515" cursor="move" label-idx="2" transform="translate(1524.98193359375, 1594.126025390625)" style="opacity:1"><rect id="v-517" width="0" height="0" fill="#fff" display="none" pointer-events="none" rx="3" ry="3" transform="matrix(1,0,0,1,0,0)"/><text id="v-516" y=".8em" fill="#707070" display="none" font-family="Open Sans" font-size="19" font-weight="normal" pointer-events="none" text-anchor="middle" transform="matrix(1,0,0,1,0,0)" xml:space="preserve"><tspan id="v-518" x="0" dy="0em" style="fill-opacity:0;stroke-opacity:0">-</tspan></text></g></g><g display="none"><g id="v-502" transform="translate(1550, 1530)"><circle r="10" idx="0"/><path d="M16,5.333c-7.732,0-14,4.701-14,10.5c0,1.982,0.741,3.833,2.016,5.414L2,25.667l5.613-1.441c2.339,1.317,5.237,2.107,8.387,2.107c7.732,0,14-4.701,14-10.5C30,10.034,23.732,5.333,16,5.333z" idx="0" transform="translate(5, -33)"/><path d="M24.778,21.419 19.276,15.917 24.777,10.415 21.949,7.585 16.447,13.087 10.945,7.585 8.117,10.415 13.618,15.917 8.116,21.419 10.946,24.248 16.447,18.746 21.948,24.248z" idx="0" transform="scale(.8) translate(9.5, -37)"><title>Remove vertex.</title></path></g></g><g id="v-523" display="none"><g id="v-503"><path d="M 26 0 L 0 13 L 26 26 z" end="source"/></g><g id="v-504"><path d="M 26 0 L 0 13 L 26 26 z" end="target"/></g></g><g id="v-522" display="none"><g id="v-501"><g event="remove" transform="translate(1369.6240234375, 1505.471923828125)"><circle r="11"/><path d="M24.778,21.419 19.276,15.917 24.777,10.415 21.949,7.585 16.447,13.087 10.945,7.585 8.117,10.415 13.618,15.917 8.116,21.419 10.946,24.248 16.447,18.746 21.948,24.248z" transform="scale(.8) translate(-16, -16)"/><title>Remove link.</title></g><g event="link:options" transform="translate(1369.6240234375, 1505.471923828125)"><circle r="11" transform="translate(25)"/><path fill="#fff" d="M31.229,17.736c0.064-0.571,0.104-1.148,0.104-1.736s-0.04-1.166-0.104-1.737l-4.377-1.557c-0.218-0.716-0.504-1.401-0.851-2.05l1.993-4.192c-0.725-0.91-1.549-1.734-2.458-2.459l-4.193,1.994c-0.647-0.347-1.334-0.632-2.049-0.849l-1.558-4.378C17.165,0.708,16.588,0.667,16,0.667s-1.166,0.041-1.737,0.105L12.707,5.15c-0.716,0.217-1.401,0.502-2.05,0.849L6.464,4.005C5.554,4.73,4.73,5.554,4.005,6.464l1.994,4.192c-0.347,0.648-0.632,1.334-0.849,2.05l-4.378,1.557C0.708,14.834,0.667,15.412,0.667,16s0.041,1.165,0.105,1.736l4.378,1.558c0.217,0.715,0.502,1.401,0.849,2.049l-1.994,4.193c0.725,0.909,1.549,1.733,2.459,2.458l4.192-1.993c0.648,0.347,1.334,0.633,2.05,0.851l1.557,4.377c0.571,0.064,1.148,0.104,1.737,0.104c0.588,0,1.165-0.04,1.736-0.104l1.558-4.377c0.715-0.218,1.399-0.504,2.049-0.851l4.193,1.993c0.909-0.725,1.733-1.549,2.458-2.458l-1.993-4.193c0.347-0.647,0.633-1.334,0.851-2.049L31.229,17.736zM16,20.871c-2.69,0-4.872-2.182-4.872-4.871c0-2.69,2.182-4.872,4.872-4.872c2.689,0,4.871,2.182,4.871,4.872C20.871,18.689,18.689,20.871,16,20.871z" transform="scale(.55) translate(29, -16)"/><title>Link options.</title></g></g></g></g><g id="j_30"><path id="v-547" fill="none" stroke="#707070" stroke-dasharray="30 30" stroke-width="2" d="M 1740 1413 1540 1362 S 1530 1360 1520 1363 L 1349 1407" style="opacity:1"/><path fill="#000" stroke="#000" transform="translate(1740,1413) scale(1,1) rotate(-165.83543395996094)"/><path id="v-549" fill="#707070" stroke="#707070" d="M 20 0 L 0 10 L 20 20 z" transform="translate(1327.4836591093501,1402.3217559621125) scale(1,1) rotate(-14.57421588897705)" style="opacity:1"/><path id="v-548" fill="none" d="M 1740 1413 1540 1362 S 1530 1360 1520 1363 L 1349 1407"/><title/><g><g id="v-532" cursor="move" label-idx="0" transform="translate(1544.66943359375, 1363.190673828125)" style="opacity:1"><rect id="v-534" width="167.938" height="119" fill="#fff" stroke="#fff" stroke-width="20" pointer-events="none" rx="3" ry="3" transform="matrix(1,0,0,1,-84,-59.5)"/><text id="v-533" y=".8em" fill="#707070" font-family="Open Sans" font-size="24" font-weight="normal" pointer-events="none" text-anchor="middle" transform="matrix(1,0,0,1,0,-52.2)" xml:space="preserve"><tspan id="v-535" x="0" dy="0em">Communicates</tspan><tspan id="v-536" x="0" dy="1.2em">dataset info,</tspan><tspan id="v-537" x="0" dy="1.2em">Sends status</tspan><tspan id="v-538" x="0" dy="1.2em">updates</tspan></text></g><g id="v-539" cursor="move" label-idx="1" transform="translate(1544.66943359375, 1432.790673828125)" style="opacity:1"><rect id="v-541" width="0" height="0" fill="#fff" pointer-events="none" rx="3" ry="3" transform="matrix(1,0,0,1,0,0)"/><text id="v-540" y=".8em" fill="#707070" display="none" font-family="Open Sans" font-size="19" font-weight="normal" pointer-events="none" text-anchor="middle" transform="matrix(1,0,0,1,0,0)" xml:space="preserve"><tspan id="v-542" x="0" dy="0em" style="fill-opacity:0;stroke-opacity:0">-</tspan></text></g><g id="v-543" cursor="move" label-idx="2" transform="translate(1544.66943359375, 1456.790673828125)" style="opacity:1"><rect id="v-545" width="0" height="0" fill="#fff" display="none" pointer-events="none" rx="3" ry="3" transform="matrix(1,0,0,1,0,0)"/><text id="v-544" y=".8em" fill="#707070" display="none" font-family="Open Sans" font-size="19" font-weight="normal" pointer-events="none" text-anchor="middle" transform="matrix(1,0,0,1,0,0)" xml:space="preserve"><tspan id="v-546" x="0" dy="0em" style="fill-opacity:0;stroke-opacity:0">-</tspan></text></g></g><g display="none"><g id="v-528" transform="translate(1530, 1360)"><circle r="10" idx="0"/><path d="M16,5.333c-7.732,0-14,4.701-14,10.5c0,1.982,0.741,3.833,2.016,5.414L2,25.667l5.613-1.441c2.339,1.317,5.237,2.107,8.387,2.107c7.732,0,14-4.701,14-10.5C30,10.034,23.732,5.333,16,5.333z" idx="0" transform="translate(5, -33)"/><path d="M24.778,21.419 19.276,15.917 24.777,10.415 21.949,7.585 16.447,13.087 10.945,7.585 8.117,10.415 13.618,15.917 8.116,21.419 10.946,24.248 16.447,18.746 21.948,24.248z" idx="0" transform="scale(.8) translate(9.5, -37)"><title>Remove vertex.</title></path></g></g><g id="v-551" display="none"><g id="v-529"><path d="M 26 0 L 0 13 L 26 26 z" end="source"/></g><g id="v-530"><path d="M 26 0 L 0 13 L 26 26 z" end="target"/></g></g><g id="v-550" display="none"><g id="v-527"><g event="remove" transform="translate(1701.2403564453125, 1403.1163330078125)"><circle r="11"/><path d="M24.778,21.419 19.276,15.917 24.777,10.415 21.949,7.585 16.447,13.087 10.945,7.585 8.117,10.415 13.618,15.917 8.116,21.419 10.946,24.248 16.447,18.746 21.948,24.248z" transform="scale(.8) translate(-16, -16)"/><title>Remove link.</title></g><g event="link:options" transform="translate(1701.2403564453125, 1403.1163330078125)"><circle r="11" transform="translate(25)"/><path fill="#fff" d="M31.229,17.736c0.064-0.571,0.104-1.148,0.104-1.736s-0.04-1.166-0.104-1.737l-4.377-1.557c-0.218-0.716-0.504-1.401-0.851-2.05l1.993-4.192c-0.725-0.91-1.549-1.734-2.458-2.459l-4.193,1.994c-0.647-0.347-1.334-0.632-2.049-0.849l-1.558-4.378C17.165,0.708,16.588,0.667,16,0.667s-1.166,0.041-1.737,0.105L12.707,5.15c-0.716,0.217-1.401,0.502-2.05,0.849L6.464,4.005C5.554,4.73,4.73,5.554,4.005,6.464l1.994,4.192c-0.347,0.648-0.632,1.334-0.849,2.05l-4.378,1.557C0.708,14.834,0.667,15.412,0.667,16s0.041,1.165,0.105,1.736l4.378,1.558c0.217,0.715,0.502,1.401,0.849,2.049l-1.994,4.193c0.725,0.909,1.549,1.733,2.459,2.458l4.192-1.993c0.648,0.347,1.334,0.633,2.05,0.851l1.557,4.377c0.571,0.064,1.148,0.104,1.737,0.104c0.588,0,1.165-0.04,1.736-0.104l1.558-4.377c0.715-0.218,1.399-0.504,2.049-0.851l4.193,1.993c0.909-0.725,1.733-1.549,2.458-2.458l-1.993-4.193c0.347-0.647,0.633-1.334,0.851-2.049L31.229,17.736zM16,20.871c-2.69,0-4.872-2.182-4.872-4.871c0-2.69,2.182-4.872,4.872-4.872c2.689,0,4.871,2.182,4.871,4.872C20.871,18.689,18.689,20.871,16,20.871z" transform="scale(.55) translate(29, -16)"/><title>Link options.</title></g></g></g></g><g id="j_31"><path id="v-574" fill="none" stroke="#707070" stroke-dasharray="30 30" stroke-width="2" d="M 1965 1620 1965 1835" style="opacity:1"/><path fill="#000" stroke="#000" transform="translate(1965,1620) scale(1,1) rotate(-270)"/><path id="v-576" fill="#707070" stroke="#707070" d="M 20 0 L 0 10 L 20 20 z" transform="translate(1955,1855) scale(1,1) rotate(-90)" style="opacity:1"/><path id="v-575" fill="none" d="M 1965 1620 1965 1835"/><title/><g><g id="v-559" cursor="move" label-idx="0" transform="translate(1965, 1727.5)" style="opacity:1"><rect id="v-561" width="164.469" height="119" fill="#fff" stroke="#fff" stroke-width="20" pointer-events="none" rx="3" ry="3" transform="matrix(1,0,0,1,-82.2,-59.5)"/><text id="v-560" y=".8em" fill="#707070" font-family="Open Sans" font-size="24" font-weight="normal" pointer-events="none" text-anchor="middle" transform="matrix(1,0,0,1,0,-52.2)" xml:space="preserve"><tspan id="v-562" x="0" dy="0em">Creates an</tspan><tspan id="v-563" x="0" dy="1.2em">instance to</tspan><tspan id="v-564" x="0" dy="1.2em">maintain an FL</tspan><tspan id="v-565" x="0" dy="1.2em">experiment</tspan></text></g><g id="v-566" cursor="move" label-idx="1" transform="translate(1965, 1797.1)" style="opacity:1"><rect id="v-568" width="0" height="0" fill="#fff" pointer-events="none" rx="3" ry="3" transform="matrix(1,0,0,1,0,0)"/><text id="v-567" y=".8em" fill="#707070" display="none" font-family="Open Sans" font-size="19" font-weight="normal" pointer-events="none" text-anchor="middle" transform="matrix(1,0,0,1,0,0)" xml:space="preserve"><tspan id="v-569" x="0" dy="0em" style="fill-opacity:0;stroke-opacity:0">-</tspan></text></g><g id="v-570" cursor="move" label-idx="2" transform="translate(1965, 1821.1)" style="opacity:1"><rect id="v-572" width="0" height="0" fill="#fff" display="none" pointer-events="none" rx="3" ry="3" transform="matrix(1,0,0,1,0,0)"/><text id="v-571" y=".8em" fill="#707070" display="none" font-family="Open Sans" font-size="19" font-weight="normal" pointer-events="none" text-anchor="middle" transform="matrix(1,0,0,1,0,0)" xml:space="preserve"><tspan id="v-573" x="0" dy="0em" style="fill-opacity:0;stroke-opacity:0">-</tspan></text></g></g><g id="v-578" display="none"><g id="v-556"><path d="M 26 0 L 0 13 L 26 26 z" end="source"/></g><g id="v-557"><path d="M 26 0 L 0 13 L 26 26 z" end="target"/></g></g><g id="v-577" display="none"><g id="v-555"><g event="remove" transform="translate(1965, 1660)"><circle r="11"/><path d="M24.778,21.419 19.276,15.917 24.777,10.415 21.949,7.585 16.447,13.087 10.945,7.585 8.117,10.415 13.618,15.917 8.116,21.419 10.946,24.248 16.447,18.746 21.948,24.248z" transform="scale(.8) translate(-16, -16)"/><title>Remove link.</title></g><g event="link:options" transform="translate(1965, 1660)"><circle r="11" transform="translate(25)"/><path fill="#fff" d="M31.229,17.736c0.064-0.571,0.104-1.148,0.104-1.736s-0.04-1.166-0.104-1.737l-4.377-1.557c-0.218-0.716-0.504-1.401-0.851-2.05l1.993-4.192c-0.725-0.91-1.549-1.734-2.458-2.459l-4.193,1.994c-0.647-0.347-1.334-0.632-2.049-0.849l-1.558-4.378C17.165,0.708,16.588,0.667,16,0.667s-1.166,0.041-1.737,0.105L12.707,5.15c-0.716,0.217-1.401,0.502-2.05,0.849L6.464,4.005C5.554,4.73,4.73,5.554,4.005,6.464l1.994,4.192c-0.347,0.648-0.632,1.334-0.849,2.05l-4.378,1.557C0.708,14.834,0.667,15.412,0.667,16s0.041,1.165,0.105,1.736l4.378,1.558c0.217,0.715,0.502,1.401,0.849,2.049l-1.994,4.193c0.725,0.909,1.549,1.733,2.459,2.458l4.192-1.993c0.648,0.347,1.334,0.633,2.05,0.851l1.557,4.377c0.571,0.064,1.148,0.104,1.737,0.104c0.588,0,1.165-0.04,1.736-0.104l1.558-4.377c0.715-0.218,1.399-0.504,2.049-0.851l4.193,1.993c0.909-0.725,1.733-1.549,2.458-2.458l-1.993-4.193c0.347-0.647,0.633-1.334,0.851-2.049L31.229,17.736zM16,20.871c-2.69,0-4.872-2.182-4.872-4.871c0-2.69,2.182-4.872,4.872-4.872c2.689,0,4.871,2.182,4.871,4.872C20.871,18.689,18.689,20.871,16,20.871z" transform="scale(.55) translate(29, -16)"/><title>Link options.</title></g></g></g></g><g id="j_32"><path id="v-601" fill="none" stroke="#707070" stroke-dasharray="30 30" stroke-width="2" d="M 1105 1620 1105 1835" style="opacity:1"/><path fill="#000" stroke="#000" transform="translate(1105,1620) scale(1,1) rotate(-270)"/><path id="v-603" fill="#707070" stroke="#707070" d="M 20 0 L 0 10 L 20 20 z" transform="translate(1095,1855) scale(1,1) rotate(-90)" style="opacity:1"/><path id="v-602" fill="none" d="M 1105 1620 1105 1835"/><title/><g><g id="v-586" cursor="move" label-idx="0" transform="translate(1105, 1727.5)" style="opacity:1"><rect id="v-588" width="164.469" height="119" fill="#fff" stroke="#fff" stroke-width="20" pointer-events="none" rx="3" ry="3" transform="matrix(1,0,0,1,-82.2,-59.5)"/><text id="v-587" y=".8em" fill="#707070" font-family="Open Sans" font-size="24" font-weight="normal" pointer-events="none" text-anchor="middle" transform="matrix(1,0,0,1,0,-52.2)" xml:space="preserve"><tspan id="v-589" x="0" dy="0em">Creates an</tspan><tspan id="v-590" x="0" dy="1.2em">instance to</tspan><tspan id="v-591" x="0" dy="1.2em">maintain an FL</tspan><tspan id="v-592" x="0" dy="1.2em">experiment</tspan></text></g><g id="v-593" cursor="move" label-idx="1" transform="translate(1105, 1797.1)" style="opacity:1"><rect id="v-595" width="0" height="0" fill="#fff" pointer-events="none" rx="3" ry="3" transform="matrix(1,0,0,1,0,0)"/><text id="v-594" y=".8em" fill="#707070" display="none" font-family="Open Sans" font-size="19" font-weight="normal" pointer-events="none" text-anchor="middle" transform="matrix(1,0,0,1,0,0)" xml:space="preserve"><tspan id="v-596" x="0" dy="0em" style="fill-opacity:0;stroke-opacity:0">-</tspan></text></g><g id="v-597" cursor="move" label-idx="2" transform="translate(1105, 1821.1)" style="opacity:1"><rect id="v-599" width="0" height="0" fill="#fff" display="none" pointer-events="none" rx="3" ry="3" transform="matrix(1,0,0,1,0,0)"/><text id="v-598" y=".8em" fill="#707070" display="none" font-family="Open Sans" font-size="19" font-weight="normal" pointer-events="none" text-anchor="middle" transform="matrix(1,0,0,1,0,0)" xml:space="preserve"><tspan id="v-600" x="0" dy="0em" style="fill-opacity:0;stroke-opacity:0">-</tspan></text></g></g><g id="v-605" display="none"><g id="v-583"><path d="M 26 0 L 0 13 L 26 26 z" end="source"/></g><g id="v-584"><path d="M 26 0 L 0 13 L 26 26 z" end="target"/></g></g><g id="v-604" display="none"><g id="v-582"><g event="remove" transform="translate(1105, 1660)"><circle r="11"/><path d="M24.778,21.419 19.276,15.917 24.777,10.415 21.949,7.585 16.447,13.087 10.945,7.585 8.117,10.415 13.618,15.917 8.116,21.419 10.946,24.248 16.447,18.746 21.948,24.248z" transform="scale(.8) translate(-16, -16)"/><title>Remove link.</title></g><g event="link:options" transform="translate(1105, 1660)"><circle r="11" transform="translate(25)"/><path fill="#fff" d="M31.229,17.736c0.064-0.571,0.104-1.148,0.104-1.736s-0.04-1.166-0.104-1.737l-4.377-1.557c-0.218-0.716-0.504-1.401-0.851-2.05l1.993-4.192c-0.725-0.91-1.549-1.734-2.458-2.459l-4.193,1.994c-0.647-0.347-1.334-0.632-2.049-0.849l-1.558-4.378C17.165,0.708,16.588,0.667,16,0.667s-1.166,0.041-1.737,0.105L12.707,5.15c-0.716,0.217-1.401,0.502-2.05,0.849L6.464,4.005C5.554,4.73,4.73,5.554,4.005,6.464l1.994,4.192c-0.347,0.648-0.632,1.334-0.849,2.05l-4.378,1.557C0.708,14.834,0.667,15.412,0.667,16s0.041,1.165,0.105,1.736l4.378,1.558c0.217,0.715,0.502,1.401,0.849,2.049l-1.994,4.193c0.725,0.909,1.549,1.733,2.459,2.458l4.192-1.993c0.648,0.347,1.334,0.633,2.05,0.851l1.557,4.377c0.571,0.064,1.148,0.104,1.737,0.104c0.588,0,1.165-0.04,1.736-0.104l1.558-4.377c0.715-0.218,1.399-0.504,2.049-0.851l4.193,1.993c0.909-0.725,1.733-1.549,2.458-2.458l-1.993-4.193c0.347-0.647,0.633-1.334,0.851-2.049L31.229,17.736zM16,20.871c-2.69,0-4.872-2.182-4.872-4.871c0-2.69,2.182-4.872,4.872-4.872c2.689,0,4.871,2.182,4.871,4.872C20.871,18.689,18.689,20.871,16,20.871z" transform="scale(.55) translate(29, -16)"/><title>Link options.</title></g></g></g></g><g id="j_33"><path id="v-631" fill="none" stroke="#707070" stroke-dasharray="30 30" stroke-width="2" d="M 1163 1320 1211 1194 S 1215 1185 1211 1176 L 1172 1079" style="opacity:1"/><path fill="#000" stroke="#000" transform="translate(1163,1320) scale(1,1) rotate(-68.93405151367188)"/><path id="v-633" fill="#707070" stroke="#707070" d="M 20 0 L 0 10 L 20 20 z" transform="translate(1174.284724466815,1056.286115138385) scale(1,1) rotate(68.1985778808594)" style="opacity:1"/><path id="v-632" fill="none" d="M 1163 1320 1211 1194 S 1215 1185 1211 1176 L 1172 1079"/><title/><g><g id="v-614" cursor="move" label-idx="0" transform="translate(1208.896728515625, 1199.5211181640625)" style="opacity:1"><rect id="v-616" width="180.063" height="176.594" fill="#fff" stroke="#fff" stroke-width="20" pointer-events="none" rx="3" ry="3" transform="matrix(1,0,0,1,-90,-88.3)"/><text id="v-615" y=".8em" fill="#707070" font-family="Open Sans" font-size="24" font-weight="normal" pointer-events="none" text-anchor="middle" transform="matrix(1,0,0,1,0,-81)" xml:space="preserve"><tspan id="v-617" x="0" dy="0em">Sends</tspan><tspan id="v-618" x="0" dy="1.2em">information</tspan><tspan id="v-619" x="0" dy="1.2em">about the</tspan><tspan id="v-620" x="0" dy="1.2em">Federation.</tspan><tspan id="v-621" x="0" dy="1.2em">Returns training</tspan><tspan id="v-622" x="0" dy="1.2em">artifacts.</tspan></text></g><g id="v-623" cursor="move" label-idx="1" transform="translate(1208.896728515625, 1293.1211181640624)" style="opacity:1"><rect id="v-625" width="0" height="0" fill="#fff" pointer-events="none" rx="3" ry="3" transform="matrix(1,0,0,1,0,0)"/><text id="v-624" y=".8em" fill="#707070" display="none" font-family="Open Sans" font-size="19" font-weight="normal" pointer-events="none" text-anchor="middle" transform="matrix(1,0,0,1,0,0)" xml:space="preserve"><tspan id="v-626" x="0" dy="0em" style="fill-opacity:0;stroke-opacity:0">-</tspan></text></g><g id="v-627" cursor="move" label-idx="2" transform="translate(1208.896728515625, 1317.1211181640624)" style="opacity:1"><rect id="v-629" width="0" height="0" fill="#fff" display="none" pointer-events="none" rx="3" ry="3" transform="matrix(1,0,0,1,0,0)"/><text id="v-628" y=".8em" fill="#707070" display="none" font-family="Open Sans" font-size="19" font-weight="normal" pointer-events="none" text-anchor="middle" transform="matrix(1,0,0,1,0,0)" xml:space="preserve"><tspan id="v-630" x="0" dy="0em" style="fill-opacity:0;stroke-opacity:0">-</tspan></text></g></g><g display="none"><g id="v-610" transform="translate(1215, 1185)"><circle r="10" idx="0"/><path d="M16,5.333c-7.732,0-14,4.701-14,10.5c0,1.982,0.741,3.833,2.016,5.414L2,25.667l5.613-1.441c2.339,1.317,5.237,2.107,8.387,2.107c7.732,0,14-4.701,14-10.5C30,10.034,23.732,5.333,16,5.333z" idx="0" transform="translate(5, -33)"/><path d="M24.778,21.419 19.276,15.917 24.777,10.415 21.949,7.585 16.447,13.087 10.945,7.585 8.117,10.415 13.618,15.917 8.116,21.419 10.946,24.248 16.447,18.746 21.948,24.248z" idx="0" transform="scale(.8) translate(9.5, -37)"><title>Remove vertex.</title></path></g></g><g id="v-635" display="none"><g id="v-611"><path d="M 26 0 L 0 13 L 26 26 z" end="source"/></g><g id="v-612"><path d="M 26 0 L 0 13 L 26 26 z" end="target"/></g></g><g id="v-634" display="none"><g id="v-609"><g event="remove" transform="translate(1177.2398681640625, 1282.6204833984375)"><circle r="11"/><path d="M24.778,21.419 19.276,15.917 24.777,10.415 21.949,7.585 16.447,13.087 10.945,7.585 8.117,10.415 13.618,15.917 8.116,21.419 10.946,24.248 16.447,18.746 21.948,24.248z" transform="scale(.8) translate(-16, -16)"/><title>Remove link.</title></g><g event="link:options" transform="translate(1177.2398681640625, 1282.6204833984375)"><circle r="11" transform="translate(25)"/><path fill="#fff" d="M31.229,17.736c0.064-0.571,0.104-1.148,0.104-1.736s-0.04-1.166-0.104-1.737l-4.377-1.557c-0.218-0.716-0.504-1.401-0.851-2.05l1.993-4.192c-0.725-0.91-1.549-1.734-2.458-2.459l-4.193,1.994c-0.647-0.347-1.334-0.632-2.049-0.849l-1.558-4.378C17.165,0.708,16.588,0.667,16,0.667s-1.166,0.041-1.737,0.105L12.707,5.15c-0.716,0.217-1.401,0.502-2.05,0.849L6.464,4.005C5.554,4.73,4.73,5.554,4.005,6.464l1.994,4.192c-0.347,0.648-0.632,1.334-0.849,2.05l-4.378,1.557C0.708,14.834,0.667,15.412,0.667,16s0.041,1.165,0.105,1.736l4.378,1.558c0.217,0.715,0.502,1.401,0.849,2.049l-1.994,4.193c0.725,0.909,1.549,1.733,2.459,2.458l4.192-1.993c0.648,0.347,1.334,0.633,2.05,0.851l1.557,4.377c0.571,0.064,1.148,0.104,1.737,0.104c0.588,0,1.165-0.04,1.736-0.104l1.558-4.377c0.715-0.218,1.399-0.504,2.049-0.851l4.193,1.993c0.909-0.725,1.733-1.549,2.458-2.458l-1.993-4.193c0.347-0.647,0.633-1.334,0.851-2.049L31.229,17.736zM16,20.871c-2.69,0-4.872-2.182-4.872-4.871c0-2.69,2.182-4.872,4.872-4.872c2.689,0,4.871,2.182,4.871,4.872C20.871,18.689,18.689,20.871,16,20.871z" transform="scale(.55) translate(29, -16)"/><title>Link options.</title></g></g></g></g><g id="j_34"><path id="v-657" fill="none" stroke="#707070" stroke-dasharray="30 30" stroke-width="2" d="M 1043 1060 999 1166 S 995 1175 998 1184 L 1042 1301" style="opacity:1"/><path fill="#000" stroke="#000" transform="translate(1043,1060) scale(1,1) rotate(-247.34477233886722)"/><path id="v-659" fill="#707070" stroke="#707070" d="M 20 0 L 0 10 L 20 20 z" transform="translate(1039.628751669837,1323.4899973110653) scale(1,1) rotate(-110.426025390625)" style="opacity:1"/><path id="v-658" fill="none" d="M 1043 1060 999 1166 S 995 1175 998 1184 L 1042 1301"/><title/><g><g id="v-644" cursor="move" label-idx="0" transform="translate(997.0918579101562, 1180.0296630859375)" style="opacity:1"><rect id="v-646" width="140.5" height="61.406" fill="#fff" stroke="#fff" stroke-width="20" pointer-events="none" rx="3" ry="3" transform="matrix(1,0,0,1,-70.2,-30.7)"/><text id="v-645" y=".8em" fill="#707070" font-family="Open Sans" font-size="24" font-weight="normal" pointer-events="none" text-anchor="middle" transform="matrix(1,0,0,1,0,-23.4)" xml:space="preserve"><tspan id="v-647" x="0" dy="0em">Registers FL</tspan><tspan id="v-648" x="0" dy="1.2em">experiments</tspan></text></g><g id="v-649" cursor="move" label-idx="1" transform="translate(997.0918579101562, 1223.2296630859375)" style="opacity:1"><rect id="v-651" width="0" height="0" fill="#fff" pointer-events="none" rx="3" ry="3" transform="matrix(1,0,0,1,0,0)"/><text id="v-650" y=".8em" fill="#707070" display="none" font-family="Open Sans" font-size="19" font-weight="normal" pointer-events="none" text-anchor="middle" transform="matrix(1,0,0,1,0,0)" xml:space="preserve"><tspan id="v-652" x="0" dy="0em" style="fill-opacity:0;stroke-opacity:0">-</tspan></text></g><g id="v-653" cursor="move" label-idx="2" transform="translate(997.0918579101562, 1247.2296630859375)" style="opacity:1"><rect id="v-655" width="0" height="0" fill="#fff" display="none" pointer-events="none" rx="3" ry="3" transform="matrix(1,0,0,1,0,0)"/><text id="v-654" y=".8em" fill="#707070" display="none" font-family="Open Sans" font-size="19" font-weight="normal" pointer-events="none" text-anchor="middle" transform="matrix(1,0,0,1,0,0)" xml:space="preserve"><tspan id="v-656" x="0" dy="0em" style="fill-opacity:0;stroke-opacity:0">-</tspan></text></g></g><g display="none"><g id="v-640" transform="translate(995, 1175)"><circle r="10" idx="0"/><path d="M16,5.333c-7.732,0-14,4.701-14,10.5c0,1.982,0.741,3.833,2.016,5.414L2,25.667l5.613-1.441c2.339,1.317,5.237,2.107,8.387,2.107c7.732,0,14-4.701,14-10.5C30,10.034,23.732,5.333,16,5.333z" idx="0" transform="translate(5, -33)"/><path d="M24.778,21.419 19.276,15.917 24.777,10.415 21.949,7.585 16.447,13.087 10.945,7.585 8.117,10.415 13.618,15.917 8.116,21.419 10.946,24.248 16.447,18.746 21.948,24.248z" idx="0" transform="scale(.8) translate(9.5, -37)"><title>Remove vertex.</title></path></g></g><g id="v-661" display="none"><g id="v-641"><path d="M 26 0 L 0 13 L 26 26 z" end="source"/></g><g id="v-642"><path d="M 26 0 L 0 13 L 26 26 z" end="target"/></g></g><g id="v-660" display="none"><g id="v-639"><g event="remove" transform="translate(1027.6649169921875, 1096.943603515625)"><circle r="11"/><path d="M24.778,21.419 19.276,15.917 24.777,10.415 21.949,7.585 16.447,13.087 10.945,7.585 8.117,10.415 13.618,15.917 8.116,21.419 10.946,24.248 16.447,18.746 21.948,24.248z" transform="scale(.8) translate(-16, -16)"/><title>Remove link.</title></g><g event="link:options" transform="translate(1027.6649169921875, 1096.943603515625)"><circle r="11" transform="translate(25)"/><path fill="#fff" d="M31.229,17.736c0.064-0.571,0.104-1.148,0.104-1.736s-0.04-1.166-0.104-1.737l-4.377-1.557c-0.218-0.716-0.504-1.401-0.851-2.05l1.993-4.192c-0.725-0.91-1.549-1.734-2.458-2.459l-4.193,1.994c-0.647-0.347-1.334-0.632-2.049-0.849l-1.558-4.378C17.165,0.708,16.588,0.667,16,0.667s-1.166,0.041-1.737,0.105L12.707,5.15c-0.716,0.217-1.401,0.502-2.05,0.849L6.464,4.005C5.554,4.73,4.73,5.554,4.005,6.464l1.994,4.192c-0.347,0.648-0.632,1.334-0.849,2.05l-4.378,1.557C0.708,14.834,0.667,15.412,0.667,16s0.041,1.165,0.105,1.736l4.378,1.558c0.217,0.715,0.502,1.401,0.849,2.049l-1.994,4.193c0.725,0.909,1.549,1.733,2.459,2.458l4.192-1.993c0.648,0.347,1.334,0.633,2.05,0.851l1.557,4.377c0.571,0.064,1.148,0.104,1.737,0.104c0.588,0,1.165-0.04,1.736-0.104l1.558-4.377c0.715-0.218,1.399-0.504,2.049-0.851l4.193,1.993c0.909-0.725,1.733-1.549,2.458-2.458l-1.993-4.193c0.347-0.647,0.633-1.334,0.851-2.049L31.229,17.736zM16,20.871c-2.69,0-4.872-2.182-4.872-4.871c0-2.69,2.182-4.872,4.872-4.872c2.689,0,4.871,2.182,4.871,4.872C20.871,18.689,18.689,20.871,16,20.871z" transform="scale(.55) translate(29, -16)"/><title>Link options.</title></g></g></g></g></g></svg>